HIERARCHY
ROOT hip
{
  OFFSET 0 0 0
  CHANNELS 6 Xposition Yposition Zposition Zrotation Yrotation Xrotation
  JOINT abdomen
  {
    OFFSET 0 20.6881 -0.73152
    CHANNELS 3 Zrotation Xrotation Yrotation
    JOINT chest
    {
      OFFSET 0 11.7043 -0.48768
      CHANNELS 3 Zrotation Xrotation Yrotation
      JOINT neck
      {
        OFFSET 0 22.1894 -2.19456
        CHANNELS 3 Zrotation Xrotation Yrotation
        JOINT head
        {
          OFFSET -0.24384 7.07133 1.2192
          CHANNELS 3 Zrotation Xrotation Yrotation
          JOINT leftEye
          {
            OFFSET 4.14528 8.04674 8.04672
            CHANNELS 3 Zrotation Xrotation Yrotation
            End Site
            {
              OFFSET 1 0 0
            }
          }
          JOINT rightEye
          {
            OFFSET -3.6576 8.04674 8.04672
            CHANNELS 3 Zrotation Xrotation Yrotation
            End Site
            {
              OFFSET 1 0 0
            }
          }
        }
      }
      JOINT rCollar
      {
        OFFSET -2.68224 19.2634 -4.8768
        CHANNELS 3 Zrotation Xrotation Yrotation
        JOINT rShldr
        {
          OFFSET -8.77824 -1.95073 1.46304
          CHANNELS 3 Zrotation Xrotation Yrotation
          JOINT rForeArm
          {
            OFFSET -28.1742 -1.7115 0.48768
            CHANNELS 3 Zrotation Xrotation Yrotation
            JOINT rHand
            {
              OFFSET -22.5879 0.773209 7.07136
              CHANNELS 3 Zrotation Xrotation Yrotation
              JOINT rThumb1
              {
                OFFSET -1.2192 -0.487915 3.41376
                CHANNELS 3 Zrotation Xrotation Yrotation
                JOINT rThumb2
                {
                  OFFSET -3.37035 -0.52449 3.41376
                  CHANNELS 3 Zrotation Xrotation Yrotation
                  End Site
                  {
                    OFFSET -1.78271 -1.18214 1.43049
                  }
                }
              }
              JOINT rIndex1
              {
                OFFSET -7.75947 0.938293 5.60832
                CHANNELS 3 Zrotation Xrotation Yrotation
                JOINT rIndex2
                {
                  OFFSET -2.54057 -0.884171 1.56538
                  CHANNELS 3 Zrotation Xrotation Yrotation
                  End Site
                  {
                    OFFSET -1.62519 -0.234802 1.16502
                  }
                }
              }
              JOINT rMid1
              {
                OFFSET -8.24714 1.18213 3.41376
                CHANNELS 3 Zrotation Xrotation Yrotation
                JOINT rMid2
                {
                  OFFSET -3.10165 -0.590103 1.0647
                  CHANNELS 3 Zrotation Xrotation Yrotation
                  End Site
                  {
                    OFFSET -2.48547 -0.328903 0.83742
                  }
                }
              }
              JOINT rRing1
              {
                OFFSET -8.82822 0.546677 1.51678
                CHANNELS 3 Zrotation Xrotation Yrotation
                JOINT rRing2
                {
                  OFFSET -2.60934 -0.819778 -0.0198488
                  CHANNELS 3 Zrotation Xrotation Yrotation
                  End Site
                  {
                    OFFSET -2.33842 -0.294052 0.168128
                  }
                }
              }
              JOINT rPinky1
              {
                OFFSET -8.27202 -0.0477905 -0.4584
                CHANNELS 3 Zrotation Xrotation Yrotation
                JOINT rPinky2
                {
                  OFFSET -1.82734 -0.647385 -0.700984
                  CHANNELS 3 Zrotation Xrotation Yrotation
                  End Site
                  {
                    OFFSET -1.69225 -0.51767 -0.607171
                  }
                }
              }
            }
          }
        }
      }
      JOINT lCollar
      {
        OFFSET 2.68224 19.2634 -4.8768
        CHANNELS 3 Zrotation Xrotation Yrotation
        JOINT lShldr
        {
          OFFSET 8.77824 -1.95073 1.46304
          CHANNELS 3 Zrotation Xrotation Yrotation
          JOINT lForeArm
          {
            OFFSET 28.1742 -1.7115 0.48768
            CHANNELS 3 Zrotation Xrotation Yrotation
            JOINT lHand
            {
              OFFSET 22.5879 0.773209 7.07136
              CHANNELS 3 Zrotation Xrotation Yrotation
              JOINT lThumb1
              {
                OFFSET 1.2192 -0.487915 3.41376
                CHANNELS 3 Zrotation Xrotation Yrotation
                JOINT lThumb2
                {
                  OFFSET 3.37035 -0.52449 3.41376
                  CHANNELS 3 Zrotation Xrotation Yrotation
                  End Site
                  {
                    OFFSET 1.78271 -1.18214 1.43049
                  }
                }
              }
              JOINT lIndex1
              {
                OFFSET 7.75947 0.938293 5.60832
                CHANNELS 3 Zrotation Xrotation Yrotation
                JOINT lIndex2
                {
                  OFFSET 2.54057 -0.884171 1.56538
                  CHANNELS 3 Zrotation Xrotation Yrotation
                  End Site
                  {
                    OFFSET 1.62519 -0.234802 1.16502
                  }
                }
              }
              JOINT lMid1
              {
                OFFSET 8.24714 1.18213 3.41376
                CHANNELS 3 Zrotation Xrotation Yrotation
                JOINT lMid2
                {
                  OFFSET 3.10165 -0.590103 1.0647
                  CHANNELS 3 Zrotation Xrotation Yrotation
                  End Site
                  {
                    OFFSET 2.48547 -0.328903 0.83742
                  }
                }
              }
              JOINT lRing1
              {
                OFFSET 8.82822 0.546677 1.51678
                CHANNELS 3 Zrotation Xrotation Yrotation
                JOINT lRing2
                {
                  OFFSET 2.60934 -0.819778 -0.0198488
                  CHANNELS 3 Zrotation Xrotation Yrotation
                  End Site
                  {
                    OFFSET 2.33842 -0.294052 0.168128
                  }
                }
              }
              JOINT lPinky1
              {
                OFFSET 8.27202 -0.0477905 -0.4584
                CHANNELS 3 Zrotation Xrotation Yrotation
                JOINT lPinky2
                {
                  OFFSET 1.82734 -0.647385 -0.700984
                  CHANNELS 3 Zrotation Xrotation Yrotation
                  End Site
                  {
                    OFFSET 1.69225 -0.51767 -0.607171
                  }
                }
              }
            }
          }
        }
      }
    }
  }
  JOINT rButtock
  {
    OFFSET -8.77824 4.35084 1.2192
    CHANNELS 3 Zrotation Xrotation Yrotation
    JOINT rThigh
    {
      OFFSET 0 -1.70687 -2.19456
      CHANNELS 3 Zrotation Xrotation Yrotation
      JOINT rShin
      {
        OFFSET 0 -36.8199 0.73152
        CHANNELS 3 Zrotation Xrotation Yrotation
        JOINT rFoot
        {
          OFFSET 0.73152 -45.1104 -5.12064
          CHANNELS 3 Zrotation Xrotation Yrotation
          End Site
          {
            OFFSET -1.1221 -3.69964 12.103
          }
        }
      }
    }
  }
  JOINT lButtock
  {
    OFFSET 8.77824 4.35084 1.2192
    CHANNELS 3 Zrotation Xrotation Yrotation
    JOINT lThigh
    {
      OFFSET 0 -1.70687 -2.19456
      CHANNELS 3 Zrotation Xrotation Yrotation
      JOINT lShin
      {
        OFFSET 0 -36.8199 0.73152
        CHANNELS 3 Zrotation Xrotation Yrotation
        JOINT lFoot
        {
          OFFSET -0.73152 -45.1104 -5.12064
          CHANNELS 3 Zrotation Xrotation Yrotation
          End Site
          {
            OFFSET 1.1221 -3.69964 12.103
          }
        }
      }
    }
  }
}
MOTION
Frames:	9
Frame Time:	0.03333
0.0 0.0 0.0 0.0 0.0 0.0 0.0 0.0 0.0 0.0 0.0 0.0 0.0 0.0 0.0 0.0 0.0 0.0 0.0 0.0 0.0 0.0 0.0 0.0 0.0 0.0 0.0 0.0 0.0 0.0 0.0 0.0 0.0 0.0 0.0 0.0 0.0 0.0 0.0 0.0 0.0 0.0 0.0 0.0 0.0 0.0 0.0 0.0 0.0 0.0 0.0 0.0 0.0 0.0 0.0 0.0 0.0 0.0 0.0 0.0 0.0 0.0 0.0 0.0 0.0 0.0 0.0 0.0 0.0 0.0 0.0 0.0 0.0 0.0 0.0 0.0 0.0 0.0 0.0 0.0 0.0 0.0 0.0 0.0 0.0 0.0 0.0 0.0 0.0 0.0 0.0 0.0 0.0 0.0 0.0 0.0 0.0 0.0 0.0 0.0 0.0 0.0 0.0 0.0 0.0 0.0 0.0 0.0 0.0 0.0 0.0 0.0 0.0 0.0 0.0 0.0 0.0 0.0 0.0 0.0 0.0 0.0 0.0 0.0 0.0 0.0 0.0 0.0 0.0 0.0 0.0 0.0
-0.1858 74.5935 0.40359999999999996 -30.98889 -69.449716 32.27122 5.755643 7.589807 142.651675 -2.887219 1.361739 -127.949731 9.232915 19.867676 83.342148 -32.619099 2.321341 -83.868456 0.002887 0.0 0.000244 0.002887 0.0 0.000244 4.250811 -45.380019 -8.779324 -113.05643 -7.825961 -152.374975 -97.473984 -43.464375 -83.360135 10.37122 -22.949889 4.904253 -0.543932 0.53625 0.085586 17.110889 -26.105173 -12.150684 -108.426017 34.161127 91.7438 104.916284 -67.840573 55.092954 -170.279792 -36.723428 145.34107 167.246084 -63.969349 132.477303 -145.119754 0.267774 -179.212409 11.578828 58.796341 -1.662288 -141.164301 0.470467 -138.190464 -147.468479 12.121255 -141.8225 82.8774 68.300174 -86.000633 104.677793 17.747995 -92.045031 -40.136702 -5.350456 65.441949 -177.642868 10.702083 -146.672256 94.79178 37.82918 -54.283851 -75.732893 -48.143741 -34.076202 -10.747845 -19.047849 4.723895 -5.259538 11.823573 -1.455818 10.976597 25.78967 -7.640536 7.227188 26.206891 -6.054926 67.606671 -72.074124 84.374294 150.978352 -0.402677 -176.275976 -1.242476 3.334602 -1.142983 -48.946173 84.324173 11.32714 -0.00054 2e-05 0.0 -3.357493 -8.215242 0.0 21.034193 57.977735 165.720927 -33.605269 59.853557 164.288875 179.872848 75.747934 0.098 -151.812881 9.488015 -4.449004 17.27905 62.221217 66.358106 -140.778313 20.018361 66.069172
-0.2502 74.43610000000001 0.5531999999999999 -31.227612 -69.513063 32.417721 7.363357 12.207551 -0.0 -0.029622 -7.172946 14.690675 3.667106 13.769663 37.717236 -17.353404 -20.379153 -41.592151 0.001039 0.0 0.000122 0.001039 0.0 0.000122 0.163351 -0.98999 -0.218876 -107.792933 -13.873388 170.095996 100.553169 27.374435 -117.274418 -161.959933 56.997455 138.201821 -0.543627 0.536335 0.08619 -143.153989 -50.416902 120.004966 12.216467 -21.784727 -5.120329 -64.23184 49.160507 51.367463 -0.05818 0.167715 0.032877 -114.29573 59.299076 104.69801 -69.295247 72.947095 87.016628 -158.764887 -27.559462 179.974642 -23.840191 -36.726077 -22.934352 -159.237347 55.722871 -149.603648 13.947172 42.750313 -15.784909 79.401324 20.727884 -120.148471 -80.867761 31.244107 114.634008 171.949279 39.151306 -143.920896 5.434809 5.264521 -1.077438 144.698369 -51.557624 -116.700945 19.172739 24.113631 -13.381557 154.065793 1.487088 -109.510497 154.14197 11.634234 -139.427965 -167.35736 -63.989722 -132.416876 145.100619 -1.523949 178.649332 152.249012 -25.058448 175.334544 -10.314041 33.809249 -8.891432 -9.555195 24.869325 -5.718055 179.966335 75.749595 0.027699 172.322974 65.153462 -164.420207 -17.735138 -53.609793 78.493977 -58.674124 -59.691539 17.514309 -0.00068 0.001773 0.000875 53.497408 -55.181916 180.0 62.007917 -33.672574 144.136914 139.120738 -13.572607 -126.599686
-0.2839 74.25789999999999 0.6843 -31.778624 -69.552815 32.919353 7.540883 12.420856 -1.322454 0.029809 -7.208425 16.237147 3.136778 13.53677 34.702495 -15.956715 -21.706505 -38.52566 -0.002696 0.0 -0.000886 -0.003116 0.0 -0.003796 -9.651125 34.836348 11.198573 -96.519833 13.516498 134.667678 176.10499 -18.396924 -138.334995 -11.267883 40.053821 3.406207 -7.759255 7.438745 1.682364 -161.338993 -66.770804 110.047438 -77.66897 43.029211 64.537791 -171.457749 -21.750357 113.623479 78.537809 -80.918795 49.688488 -174.887745 -37.746855 143.302294 -0.008597 -0.872365 -0.272292 9.78867 7.691687 0.93948 -144.859877 11.079869 -141.542427 -137.487843 -12.812043 -133.828612 158.515619 -30.702352 -167.037387 30.8473 20.790193 27.503774 -52.55331 -10.524837 52.230161 177.81365 24.063327 -146.028776 176.599363 -14.212667 -89.691365 71.770308 4.796885 -20.503042 157.328695 -28.217558 -122.489451 46.772946 55.258387 -33.228706 -23.904325 -61.333746 -1.398918 163.920102 -6.167174 -143.375661 72.757724 -72.144213 89.771742 58.365945 -82.269929 84.271771 126.971989 -26.391617 124.682475 -4.127103 2.786883 0.849412 0.00049 -0.000496 -0.00063 -3.910601 -10.333531 159.138685 7.621905 -61.739594 -11.544918 -116.712792 16.761231 -151.4537 0.001102 -6.1e-05 0.001102 52.743588 -53.449563 58.574633 36.754109 65.68574 112.56762 -0.926744 9.11055 -149.082096
-0.3464 74.058 0.8344 -32.331211 -69.559543 33.552866 7.5875 12.51259 -0.0 -0.149317 -7.22192 15.186723 -6.783321 14.247465 -20.582999 20.160083 -21.97896 23.76069 0.000793 -0.0 -0.000824 0.000793 -0.0 -0.000824 0.48238 -3.00082 -0.653427 -107.144944 -3.499584 169.981942 178.167216 -20.166889 -136.54661 -10.346711 38.219197 3.034361 114.538478 -50.244721 55.721277 -116.501833 33.002491 71.620537 -108.427335 34.160979 91.743063 82.736165 -66.456328 35.635589 -36.036667 51.722868 29.832629 80.70055 -77.900037 52.068678 0.001866 -0.060706 -0.020078 -156.334076 -19.608662 174.154903 -1.177954 -2.98533 -1.09235 -147.594562 12.72867 -143.945457 155.548444 -3.804253 -161.899993 47.898754 17.938514 4.404031 73.889991 -37.66695 125.750854 -74.061758 -68.677208 -60.207426 -93.028104 -51.083227 -40.501388 161.028466 -25.26172 -125.436456 -25.040808 -43.740831 5.371962 161.982174 -21.362302 -111.929572 160.098864 -4.900973 -142.969154 161.232349 1.251941 -142.229368 0.000751 -0.018521 0.005887 156.468959 -42.784162 -177.031157 11.663315 -23.130928 11.069591 22.433809 -40.184901 23.662066 0.0 0.001117 -0.002042 -3.946156 -10.460861 159.196445 5.386961 -50.325747 -140.16034 -95.408423 44.645278 -0.16167 179.987442 75.749693 0.008592 -149.783164 7.229994 -84.692974 -66.023339 2.696965 -10.090579 -0.333604 18.767195 92.504082
-0.3717 73.8648 0.9672000000000001 -32.601679 -69.697285 33.821896 7.548192 12.64143 -1.352527 -0.046703 -7.22518 16.760547 9.48584 20.754613 88.674036 -34.869426 5.412169 -88.247234 -0.002504 0.0 -0.002444 0.003631 -0.0 -3.3e-05 -59.824885 -86.722291 -81.625575 98.224165 46.51353 -81.418978 177.010906 -18.46038 94.92172 163.786698 -26.423316 142.464513 -93.743564 37.963562 53.548574 50.525983 -40.986832 25.899907 -146.662789 -8.599096 119.299687 3.922389 12.520896 -7.349546 -159.364142 -2.686143 142.595798 -128.917602 51.837872 118.066911 0.000612 -0.018619 -0.005136 10.706321 -55.576951 -7.449274 -12.372942 -24.158391 -11.757737 -158.490433 53.361555 -149.814103 155.548349 -3.804046 -161.900637 -139.123695 -8.631739 175.479025 21.413388 -4.29856 -41.411763 -0.621415 2.951673 -0.794808 -6.46432 -6.452399 0.63432 -29.516506 -60.206363 23.05513 166.821322 -43.973975 -122.06143 54.982034 56.504331 -42.064084 158.521827 -0.192697 -142.143272 163.549959 -5.634209 -143.050527 0.001269 -0.018626 0.005046 -9.080996 14.186426 -1.883147 -1.297304 3.491667 -1.193451 128.822085 -29.158773 127.095413 -0.000983 0.000765 0.0 -2.968966 -10.339139 -142.172364 -55.302515 -28.694614 -117.682485 -111.857358 -5.897078 -161.733066 -179.982002 75.748927 -0.012314 -150.715411 7.958457 -3.809654 18.618931 65.792763 75.353476 -149.748181 1.150196 81.966108
-0.4217 73.6471 1.0735 -32.54844 -69.756634 33.898274 7.249657 12.809519 -1.319512 -0.00363 -7.210878 16.903996 -6.664336 14.133599 -20.220428 20.166819 -22.738252 23.444328 -0.00514 0.0 -0.002191 0.000988 0.0 0.000227 -157.848965 -22.658145 165.566993 76.135712 74.430899 -112.612082 108.301871 -72.479944 22.911146 167.597362 -16.598781 144.833727 93.028656 -51.084077 40.500603 -16.194409 -44.232772 -30.198004 -0.326424 0.530259 0.185974 -152.108344 -0.024584 109.289025 -36.034534 51.723446 29.832331 168.000497 -64.091145 133.015 -145.122727 1.97369 -179.748378 11.757599 29.430084 -5.653178 8.366798 26.42707 7.361392 1.15973 -2.23893 -0.816306 153.049878 10.023097 -158.667154 -136.827222 2.46677 -172.176898 89.433163 26.322904 -73.214221 -32.048118 -55.34505 -21.115232 69.523716 38.077038 -36.391192 -29.497318 -28.189503 -17.220007 -73.419891 -73.571334 -26.563493 143.976208 6.538742 -113.456511 -0.541704 -1.590032 0.292805 170.280224 -26.250637 -144.305809 69.297823 72.945649 -87.017694 94.678005 82.798944 -103.720936 151.491699 34.558202 147.061367 -12.41925 31.197509 -4.851702 -179.9859 75.751467 -0.009648 170.911095 64.913014 -169.982683 -9.538847 -57.643757 74.951031 -127.66333 -65.744813 -38.044701 -0.000783 -0.000115 0.001007 57.526957 -53.484567 -48.039367 -73.54768 -6.310546 -115.650914 -77.352212 -17.461087 174.336556
-0.4966 73.4463 1.1853 -32.537816 -69.9046 33.903857 7.056954 12.926192 -0.0 -0.100678 -7.209569 15.73283 6.4311 15.481504 55.067291 -27.134062 -13.929787 -59.341522 0.000135 -0.0 -0.003922 -0.005134 0.0 -0.000476 -3.767213 17.921138 4.640545 -113.083257 -8.211551 149.6931 -92.371316 -26.794614 -104.882653 21.081644 -41.270723 12.861699 114.538721 -50.246022 55.722581 -13.048802 -73.020239 -36.813363 -140.163942 2.326129 115.877897 -63.596452 56.773105 45.588916 -8.304296 20.652969 5.560061 -11.331079 33.426129 9.095926 -9e-06 0.022695 0.006637 -156.432869 -22.959264 174.542133 -8.192189 -17.575534 -7.730006 -4.086233 -16.342622 -6.176943 6.251045 26.219206 -7.46805 157.110042 -45.869928 -121.393875 8.510887 -75.898554 94.00161 -162.203568 -32.88174 -140.352694 -11.110527 -11.091942 0.639785 89.165544 27.134241 -78.54014 -168.926068 -66.170751 -109.493117 46.105582 54.078238 -36.040397 12.840844 28.997749 -9.148417 42.020125 58.548767 -36.161815 0.001395 -0.060696 0.020063 155.418808 -1.301284 -172.001968 16.662768 -29.659433 15.918995 158.712791 54.141374 149.737917 179.974604 75.749763 0.017376 167.44256 66.596871 65.000085 52.399689 25.901169 -165.046634 69.183121 32.137355 35.937529 179.982686 75.748545 0.011846 -151.863724 6.217818 101.449528 61.083527 -18.155744 -72.656405 -75.321119 4.372421 9.503457
-0.5941 73.28529999999999 1.2493 -32.635879 -70.05033 33.96429 5.729739 8.624961 146.214787 -2.608552 1.690579 -130.146485 9.784507 22.421881 98.388125 -36.284683 11.519528 -95.9868 0.003417 0.0 0.002166 -0.003103 0.0 -0.005103 -13.948057 42.750159 15.785273 85.013408 -25.765256 55.048621 0.168696 31.134735 52.416478 -7.656863 33.825966 2.423268 -0.54402 0.536211 0.085617 -35.03531 25.328362 31.528122 -148.885248 -12.609519 120.245902 -177.744522 -43.316123 115.145928 -0.05692 0.168194 0.029943 -163.255127 -4.710879 143.341751 -0.00078 -0.018598 -0.005237 -154.172421 -65.01992 -178.246508 -152.694706 39.284881 -147.934421 -112.698532 -42.417283 -110.63133 153.491126 7.898801 -159.213498 -118.825437 -88.367128 -163.780544 -115.382572 0.293684 -164.956368 158.385834 58.408395 -134.561024 169.318632 -7.001173 -89.922638 125.861549 11.599546 -60.375164 148.884961 -12.609007 -120.247191 163.241985 -18.621579 -119.518534 162.270143 -11.676893 -143.937339 6.586609 24.284465 -5.795999 0.056982 -3.42805 1.079388 -11.561342 -18.40241 2.256103 13.277353 -25.410679 12.631593 -2.597781 -1.050272 0.436292 -8.7e-05 -0.000164 0.000112 -3.421391 -8.339617 -43.755441 -28.636694 47.552601 123.680427 -32.936202 10.378975 -106.812237 0.004309 -0.000212 0.001077 56.934724 -55.657404 -180.0 54.918501 -37.368285 -97.229652 130.469384 -35.326459 -16.462282
